<mxfile host="app.diagrams.net" agent="Mozilla/5.0 (Windows NT 10.0; Win64; x64) AppleWebKit/537.36 (KHTML, like Gecko) Chrome/134.0.0.0 Safari/537.36" version="26.1.1">
  <diagram name="Trang-1" id="Z2BVIscXDgWOZPdJ27op">
    <mxGraphModel dx="1290" dy="522" grid="1" gridSize="10" guides="1" tooltips="1" connect="1" arrows="1" fold="1" page="1" pageScale="1" pageWidth="827" pageHeight="1169" math="0" shadow="0">
      <root>
        <mxCell id="0" />
        <mxCell id="1" parent="0" />
        <mxCell id="aWc46lugSjOvTN2WemsC-1" value="Begin" style="rounded=1;whiteSpace=wrap;html=1;" vertex="1" parent="1">
          <mxGeometry x="330" y="90" width="120" height="60" as="geometry" />
        </mxCell>
        <mxCell id="aWc46lugSjOvTN2WemsC-4" value="" style="edgeStyle=orthogonalEdgeStyle;rounded=0;orthogonalLoop=1;jettySize=auto;html=1;" edge="1" parent="1" source="aWc46lugSjOvTN2WemsC-2" target="aWc46lugSjOvTN2WemsC-3">
          <mxGeometry relative="1" as="geometry" />
        </mxCell>
        <mxCell id="aWc46lugSjOvTN2WemsC-2" value="Nhập n số nguyên&lt;div&gt;tố&lt;/div&gt;&lt;div&gt;&lt;br&gt;&lt;/div&gt;" style="shape=parallelogram;perimeter=parallelogramPerimeter;whiteSpace=wrap;html=1;fixedSize=1;" vertex="1" parent="1">
          <mxGeometry x="320" y="190" width="120" height="60" as="geometry" />
        </mxCell>
        <mxCell id="aWc46lugSjOvTN2WemsC-3" value="Count &amp;lt; n&lt;div&gt;a&amp;gt;=2&lt;/div&gt;&lt;div&gt;a là số nguyên tố&lt;/div&gt;&lt;div&gt;a++&lt;/div&gt;&lt;div&gt;&lt;br&gt;&lt;/div&gt;&lt;div&gt;&lt;br&gt;&lt;/div&gt;" style="shape=parallelogram;perimeter=parallelogramPerimeter;whiteSpace=wrap;html=1;fixedSize=1;" vertex="1" parent="1">
          <mxGeometry x="275" y="280" width="210" height="100" as="geometry" />
        </mxCell>
        <mxCell id="aWc46lugSjOvTN2WemsC-7" value="a &amp;gt;j&lt;div&gt;j=2;j++&lt;br&gt;&lt;div&gt;a %j ==0&lt;/div&gt;&lt;/div&gt;" style="whiteSpace=wrap;html=1;" vertex="1" parent="1">
          <mxGeometry x="280" y="420" width="190" height="80" as="geometry" />
        </mxCell>
        <mxCell id="aWc46lugSjOvTN2WemsC-12" value="Fale" style="edgeStyle=orthogonalEdgeStyle;rounded=0;orthogonalLoop=1;jettySize=auto;html=1;" edge="1" parent="1" source="aWc46lugSjOvTN2WemsC-8" target="aWc46lugSjOvTN2WemsC-11">
          <mxGeometry relative="1" as="geometry" />
        </mxCell>
        <mxCell id="aWc46lugSjOvTN2WemsC-8" value="a chia hết cho J trong điều kiện J&amp;lt;a" style="rhombus;whiteSpace=wrap;html=1;" vertex="1" parent="1">
          <mxGeometry x="312" y="530" width="126" height="110" as="geometry" />
        </mxCell>
        <mxCell id="aWc46lugSjOvTN2WemsC-9" value="True" style="edgeStyle=orthogonalEdgeStyle;rounded=0;orthogonalLoop=1;jettySize=auto;html=1;entryX=0.03;entryY=0.58;entryDx=0;entryDy=0;entryPerimeter=0;" edge="1" parent="1" source="aWc46lugSjOvTN2WemsC-8" target="aWc46lugSjOvTN2WemsC-3">
          <mxGeometry relative="1" as="geometry">
            <Array as="points">
              <mxPoint x="150" y="585" />
              <mxPoint x="150" y="338" />
            </Array>
          </mxGeometry>
        </mxCell>
        <mxCell id="aWc46lugSjOvTN2WemsC-10" style="edgeStyle=orthogonalEdgeStyle;rounded=0;orthogonalLoop=1;jettySize=auto;html=1;entryX=0.537;entryY=-0.035;entryDx=0;entryDy=0;entryPerimeter=0;" edge="1" parent="1" source="aWc46lugSjOvTN2WemsC-3" target="aWc46lugSjOvTN2WemsC-7">
          <mxGeometry relative="1" as="geometry" />
        </mxCell>
        <mxCell id="aWc46lugSjOvTN2WemsC-15" value="" style="edgeStyle=orthogonalEdgeStyle;rounded=0;orthogonalLoop=1;jettySize=auto;html=1;" edge="1" parent="1" source="aWc46lugSjOvTN2WemsC-11" target="aWc46lugSjOvTN2WemsC-14">
          <mxGeometry relative="1" as="geometry" />
        </mxCell>
        <mxCell id="aWc46lugSjOvTN2WemsC-11" value="Display a&lt;div&gt;Count ++&lt;/div&gt;&lt;div&gt;&lt;br&gt;&lt;/div&gt;" style="shape=parallelogram;perimeter=parallelogramPerimeter;whiteSpace=wrap;html=1;fixedSize=1;" vertex="1" parent="1">
          <mxGeometry x="521" y="555" width="120" height="60" as="geometry" />
        </mxCell>
        <mxCell id="aWc46lugSjOvTN2WemsC-17" value="true" style="edgeStyle=orthogonalEdgeStyle;rounded=0;orthogonalLoop=1;jettySize=auto;html=1;" edge="1" parent="1" source="aWc46lugSjOvTN2WemsC-14" target="aWc46lugSjOvTN2WemsC-16">
          <mxGeometry relative="1" as="geometry" />
        </mxCell>
        <mxCell id="aWc46lugSjOvTN2WemsC-18" value="False" style="edgeStyle=orthogonalEdgeStyle;rounded=0;orthogonalLoop=1;jettySize=auto;html=1;entryX=1;entryY=0.5;entryDx=0;entryDy=0;" edge="1" parent="1" source="aWc46lugSjOvTN2WemsC-14" target="aWc46lugSjOvTN2WemsC-3">
          <mxGeometry relative="1" as="geometry">
            <Array as="points">
              <mxPoint x="770" y="713" />
              <mxPoint x="770" y="330" />
            </Array>
          </mxGeometry>
        </mxCell>
        <mxCell id="aWc46lugSjOvTN2WemsC-14" value="Count = Number" style="rhombus;whiteSpace=wrap;html=1;" vertex="1" parent="1">
          <mxGeometry x="430" y="660" width="191" height="105" as="geometry" />
        </mxCell>
        <mxCell id="aWc46lugSjOvTN2WemsC-16" value="End" style="rounded=1;whiteSpace=wrap;html=1;" vertex="1" parent="1">
          <mxGeometry x="465.5" y="867.5" width="120" height="60" as="geometry" />
        </mxCell>
      </root>
    </mxGraphModel>
  </diagram>
</mxfile>
